<svg width="168" height="168" viewBox="0 0 168 168" fill="none" xmlns="http://www.w3.org/2000/svg">
<ellipse cx="40.5" cy="79.6299" rx="40.5" ry="40.0622" fill="#D02222"/>
<ellipse cx="127.5" cy="79.6299" rx="40.5" ry="40.0622" fill="#D02222"/>
<circle cx="85" cy="50" r="50" fill="#D02222"/>
<rect x="41" y="64.2974" width="87" height="102.876" rx="10" fill="#D02222"/>
<path d="M70.0342 44.2088C74.8031 43.1004 79.5022 42.9445 84.1316 43.7411C88.7388 44.4443 92.773 46.2663 96.2343 49.207C99.7669 52.0326 102.165 56.1073 103.43 61.4311C105.116 68.5296 104.283 74.7845 100.931 80.1959C97.6725 85.5855 92.9432 90.1835 86.7431 93.99L91.502 114.025L82.385 116.144L75.8956 88.8237C79.0353 87.5026 81.9126 85.7004 84.5277 83.4171C87.2363 81.1121 89.2618 78.4238 90.6043 75.3521C91.9467 72.2805 92.1742 68.8766 91.2868 65.1406C90.1109 60.1903 87.469 56.9606 83.3611 55.4515C79.3467 53.9206 75.0018 53.6985 70.3264 54.7852C67.9887 55.3285 65.7041 56.303 63.4726 57.7087C61.3124 58.9993 59.4525 60.5157 57.893 62.258L51.8762 53.7514C53.9524 51.6919 56.703 49.7713 60.1279 47.9897C63.5529 46.2081 66.855 44.9478 70.0342 44.2088ZM89.714 128.928C92.2387 128.341 94.6112 128.775 96.8316 130.231C99.1232 131.57 100.569 133.501 101.168 136.023C101.767 138.545 101.353 140.957 99.9265 143.26C98.5714 145.448 96.6315 146.835 94.1068 147.422C91.5821 148.008 89.1739 147.632 86.8822 146.292C84.6619 144.837 83.2522 142.848 82.6531 140.326C82.0319 137.711 82.3989 135.31 83.754 133.122C85.1091 130.935 87.0958 129.537 89.714 128.928Z" fill="white"/>
</svg>
